<svg width="375" height="667" viewBox="0 0 375 667" fill="none" xmlns="http://www.w3.org/2000/svg">
  <rect width="15.2534" height="5.99081" rx="2.9954" transform="matrix(0.984773 0.173844 -0.173452 0.984842 262.918 239.558)" fill="#5F2EF3"/>
  <rect width="15.2617" height="5.98753" rx="2.99377" transform="matrix(0.706695 -0.707519 0.706695 0.707519 95 580.798)" fill="#5F2EF3"/>
  <rect width="15.2534" height="5.99081" rx="2.9954" transform="matrix(0.984773 0.173844 -0.173452 0.984842 155.039 528)" fill="#5F2EF3"/>
  <rect width="15.2636" height="5.98681" rx="2.9934" transform="matrix(0.628877 -0.777504 0.776787 0.629763 334 256.868)" fill="#5826EB"/>
  <rect width="15.2636" height="5.98681" rx="2.9934" transform="matrix(0.628877 -0.777504 0.776787 0.629763 223 433.868)" fill="#5826EB"/>
  <rect width="15.2636" height="5.98681" rx="2.9934" transform="matrix(0.628877 -0.777504 0.776787 0.629763 155 270.868)" fill="#5F2EF3"/>
  <rect width="15.2627" height="5.98717" rx="2.99358" transform="matrix(0.6687 0.743532 -0.742757 0.669561 306.447 388)" fill="#5F2EF3"/>
  <rect width="15.2568" height="5.98948" rx="2.99474" transform="matrix(0.882721 0.469898 -0.469045 0.883174 238.809 366)" fill="#6F40FC"/>
  <rect width="15.2639" height="5.98669" rx="2.99334" transform="matrix(-0.615216 0.788359 -0.787663 -0.616107 118.106 303.688)" fill="#5826EB"/>
  <rect width="15.2568" height="5.98948" rx="2.99474" transform="matrix(0.882721 0.469898 -0.469045 0.883174 56.8093 435)" fill="#5F2EF3"/>
  <rect width="15.2659" height="5.98589" rx="2.99295" transform="matrix(0.514597 -0.857432 0.856902 0.515479 335 446.089)" fill="#6F40FC"/>
  <rect width="15.2659" height="5.98589" rx="2.99295" transform="matrix(0.514597 -0.857432 0.856902 0.515479 132 648.089)" fill="#6F40FC"/>
  <rect width="15.254" height="5.99055" rx="2.99528" transform="matrix(0.96585 -0.2591 0.258538 0.966001 24 491.952)" fill="#5826EB"/>
  <rect width="15.2639" height="5.98669" rx="2.99334" transform="matrix(0.615216 -0.788358 0.787663 0.616107 28.9229 44.9839)" fill="#5826EB"/>
  <rect width="15.2639" height="5.98669" rx="2.99334" transform="matrix(0.615216 -0.788358 0.787663 0.616107 108 497.033)" fill="#5826EB"/>
  <rect width="15.2639" height="5.98669" rx="2.99334" transform="matrix(0.615216 -0.788358 0.787663 0.616107 276 626.033)" fill="#5826EB"/>
  <rect width="15.262" height="5.98741" rx="2.9937" transform="matrix(0.694239 -0.719744 0.718935 0.695077 161 464.985)" fill="#6F40FC"/>
  <rect width="15.262" height="5.98741" rx="2.9937" transform="matrix(0.694239 -0.719744 0.718935 0.695077 213 506.985)" fill="#6F40FC"/>
  <rect width="15.262" height="5.98741" rx="2.9937" transform="matrix(0.694239 -0.719744 0.718935 0.695077 22 386.985)" fill="#5826EB"/>
  <rect width="15.262" height="5.98741" rx="2.9937" transform="matrix(0.694239 -0.719744 0.718935 0.695077 265.293 121.818)" fill="#5826EB"/>
  <rect width="15.2576" height="5.98917" rx="2.99458" transform="matrix(0.856902 0.515479 -0.514597 0.857432 245.805 170.818)" fill="#6F40FC"/>
  <rect x="316.609" y="174.249" width="15.2528" height="5.99102" rx="2.99551" fill="#5F2EF3"/>
  <rect x="72" y="253" width="15.2528" height="5.99102" rx="2.99551" fill="#5F2EF3"/>
  <rect width="15.2576" height="5.98917" rx="2.99458" transform="matrix(0.856902 0.515479 -0.514597 0.857432 152.082 395)" fill="#5F2EF3"/>
  <rect width="15.2576" height="5.98917" rx="2.99458" transform="matrix(0.856902 0.515479 -0.514597 0.857432 350.082 326)" fill="#5826EB"/>
  <rect width="15.2576" height="5.98917" rx="2.99458" transform="matrix(0.856902 0.515479 -0.514597 0.857432 335.082 505)" fill="#5826EB"/>
  <rect width="15.2627" height="5.98717" rx="2.99358" transform="matrix(0.6687 0.743532 -0.742757 0.669561 19.447 159)" fill="#6F40FC"/>
  <rect width="15.2627" height="5.98717" rx="2.99358" transform="matrix(0.6687 0.743532 -0.742757 0.669561 234.447 562)" fill="#5F2EF3"/>
  <rect width="15.257" height="5.98938" rx="2.99469" transform="matrix(0.87438 0.485242 -0.484378 0.874859 113.901 112)" fill="#6F40FC"/>
  <rect width="15.257" height="5.98938" rx="2.99469" transform="matrix(0.87438 0.485242 -0.484378 0.874859 220.321 73.8892)" fill="#6F40FC"/>
  <rect width="15.2702" height="5.98421" rx="2.99211" transform="matrix(-0.984808 0.173648 -0.173294 -0.98487 35.0752 241.894)" fill="#5F2EF3"/>
  <rect width="15.2702" height="5.98421" rx="2.99211" transform="matrix(-0.984808 0.173648 -0.173294 -0.98487 225.075 639.894)" fill="#5F2EF3"/>
  <rect width="15.2705" height="5.98408" rx="2.99204" transform="matrix(0.0696756 -0.99757 0.997558 0.0698374 202 222.233)" fill="#5826EB"/>
  <rect width="15.2705" height="5.98408" rx="2.99204" transform="matrix(0.0696756 -0.99757 0.997558 0.0698374 96 381.233)" fill="#5826EB"/>
  <rect width="15.2563" height="5.98968" rx="2.99484" transform="matrix(-0.898593 -0.438784 0.437959 -0.898995 187.709 349.079)" fill="#5826EB"/>
  <rect width="15.2705" height="5.98408" rx="2.99204" transform="matrix(0.0696756 -0.99757 0.997558 0.0698374 31 325.233)" fill="#6F40FC"/>
  <rect width="15.2705" height="5.98408" rx="2.99204" transform="matrix(0.0696756 -0.99757 0.997558 0.0698374 283 326.233)" fill="#6F40FC"/>
  <rect width="15.2705" height="5.98408" rx="2.99204" transform="matrix(0.0696756 -0.99757 0.997558 0.0698374 275 484.233)" fill="#6F40FC"/>
  <rect width="15.2705" height="5.98408" rx="2.99204" transform="matrix(0.0696756 -0.99757 0.997558 0.0698374 348.072 119.078)" fill="#5826EB"/>
  <rect width="15.2705" height="5.98408" rx="2.99204" transform="matrix(0.0696756 -0.99757 0.997558 0.0698374 359 654.233)" fill="#6F40FC"/>
  <rect width="15.2627" height="5.98717" rx="2.99358" transform="matrix(0.6687 0.743532 -0.742757 0.669561 54.447 626)" fill="#5F2EF3"/>
  <rect x="337" y="585" width="15.2528" height="5.99102" rx="2.99551" fill="#5826EB"/>
  <rect width="15.2576" height="5.98917" rx="2.99458" transform="matrix(0.856902 0.515479 -0.514597 0.857432 322.231 46.9297)" fill="#6F40FC"/>
  <rect width="15.2536" height="5.99072" rx="2.99536" transform="matrix(0.978098 0.208144 -0.20768 0.978197 214.675 288.567)" fill="#6F40FC"/>
  <rect width="15.2536" height="5.99072" rx="2.99536" transform="matrix(0.978098 0.208144 -0.20768 0.978197 80.2442 166)" fill="#6F40FC"/>
  <rect width="15.254" height="5.99055" rx="2.99528" transform="matrix(-0.987743 -0.15609 0.156665 -0.987651 106.961 45.9604)" fill="#5F2EF3"/>
  <rect width="15.262" height="5.98741" rx="2.9937" transform="matrix(0.694239 -0.719744 0.718935 0.695077 22.9388 561.16)" fill="#6F40FC"/>
  <rect x="175" y="593" width="15.2528" height="5.99102" rx="2.99551" fill="#5F2EF3"/>
  <rect width="15.2627" height="5.98717" rx="2.99358" transform="matrix(0.6687 0.743532 -0.742757 0.669561 124.447 204)" fill="#5F2EF3"/>
  <rect width="15.2593" height="5.98849" rx="2.99425" transform="matrix(0.798298 -0.602262 0.601368 0.798972 159.01 61.8154)" fill="#5826EB"/>
  <rect width="15.262" height="5.98741" rx="2.9937" transform="matrix(0.694239 -0.719744 0.718935 0.695077 51 110.985)" fill="#5F2EF3"/>
  <rect width="15.262" height="5.98741" rx="2.9937" transform="matrix(0.694239 -0.719744 0.718935 0.695077 176 144.985)" fill="#5F2EF3"/>
  <rect width="15.2651" height="5.98622" rx="2.99311" transform="matrix(0.558745 -0.829339 0.828735 0.559641 289 564.66)" fill="#6F40FC"/>
  <rect width="15.2651" height="5.98622" rx="2.99311" transform="matrix(0.558745 -0.829339 0.828735 0.559641 255.319 40.6177)" fill="#5F2EF3"/>
</svg>
